<?xml version="1.0" encoding="UTF-8"?>
<svg width="700pt" height="700pt" version="1.1" viewBox="0 0 700 700" xmlns="http://www.w3.org/2000/svg"
  xmlns:xlink="http://www.w3.org/1999/xlink">
  <g>
    <path
      d="m490.45 157.25h-74.648v-24.641c0-22.176-18.031-40.266-40.152-40.266l-166.04 0.003906c-22.176 0-40.266 18.031-40.266 40.266v229.82c0 22.176 18.031 40.266 40.266 40.266h74.535v24.641c0 22.176 18.031 40.266 40.266 40.266h165.98c22.176 0 40.152-18.031 40.152-40.266l-0.003906-229.88c0.058593-22.176-17.977-40.211-40.094-40.211zm-304.25 205.24v-229.82c0-12.938 10.527-23.465 23.465-23.465h165.98c12.879 0 23.352 10.527 23.352 23.465v229.88c0 12.938-10.473 23.465-23.352 23.465h-166.04c-12.883-0.054687-23.41-10.582-23.41-23.52zm327.6 64.848c0 12.938-10.473 23.465-23.352 23.465h-165.98c-12.938 0-23.465-10.527-23.465-23.465v-24.641h74.648c22.176 0 40.152-18.031 40.152-40.266v-188.38h74.648c12.879 0 23.352 10.473 23.352 23.352z" />
  </g>
</svg>